<svg xmlns="http://www.w3.org/2000/svg" viewBox="0 0 1200 900" role="img" aria-label="Chicken stir fry illustration">
  <defs>
    <linearGradient id="bg2" x1="0" y1="0" x2="1" y2="1">
      <stop offset="0%" stop-color="#f3f7df"/>
      <stop offset="100%" stop-color="#dceac6"/>
    </linearGradient>
  </defs>
  <rect width="1200" height="900" fill="url(#bg2)"/>
  <ellipse cx="600" cy="560" rx="340" ry="110" fill="#1d1d1d"/>
  <ellipse cx="600" cy="540" rx="300" ry="84" fill="#2f2f2f"/>
  <ellipse cx="600" cy="520" rx="275" ry="68" fill="#3f3f3f"/>
  <ellipse cx="510" cy="500" rx="40" ry="24" fill="#f0a448"/>
  <ellipse cx="590" cy="535" rx="42" ry="22" fill="#f0a448"/>
  <ellipse cx="660" cy="490" rx="38" ry="24" fill="#f0a448"/>
  <ellipse cx="730" cy="530" rx="36" ry="21" fill="#f0a448"/>
  <rect x="460" y="470" width="52" height="24" rx="10" fill="#d8412a" transform="rotate(-16 486 482)"/>
  <rect x="675" y="460" width="48" height="24" rx="10" fill="#d8412a" transform="rotate(12 699 472)"/>
  <rect x="620" y="560" width="56" height="22" rx="10" fill="#3f8f4c" transform="rotate(-9 648 571)"/>
  <rect x="545" y="560" width="52" height="22" rx="10" fill="#3f8f4c" transform="rotate(9 571 571)"/>
  <text x="600" y="770" font-family="Georgia, serif" font-size="58" text-anchor="middle" fill="#274126">Chicken Stir-Fry</text>
</svg>
